# xmcd
#
# Track frame offsets:
#	150
#	11807
#	25587
#	39271
#	54433
#	70579
#	85189
#	97485
#	112656
#	126069
#	137918
#	156784
#	171481
#	186258
#	203846
#	218416
#	236674
#	250065
#
# Disc length: 3567 seconds
#
# Revision: 0
# Processed by: cddbd v1.5.2PL0 Copyright (c) Steve Scherf et al.
# Submitted via: dBpowerAMP V4.0
#
DISCID=ef0ded12
DTITLE=SCHOW DE BANDAS - SCHOW DE BANDAS
DYEAR=1900
DGENRE=Bluegrass
TTITLE0=BANDAS EM FESTA
TTITLE1=TOMA JUIZO PASSARELA
TTITLE2=POR QUE NAO LIGA(SAN MARINO)
TTITLE3=AMOR TEMPORARIO (JM)
TTITLE4=TÁ TUDO BEM QUE NADA(DANUBIO)
TTITLE5=AMOR PERFEITO(TERCERA)
TTITLE6=ME QUEIRA BEM(MONTANARI)
TTITLE7=RECONHEÇO(CEU E CANTOS)
TTITLE8=EU ME ENTREGO A VOCE(BANDA LEGAL)
TTITLE9=CHEGA MAIS CEDO(SANGUE LATINO)
TTITLE10=CAVALINHO POWER MIX
TTITLE11=O NOME DELA É MEU AMOR(FLAVIO DALCIN)
TTITLE12=NO MEIO DA NOITE(CHAMPION)
TTITLE13=CHEGA MAIS fLOR
TTITLE14=NAO QUERO MAIS TE VER(FARLEY)
TTITLE15=MEU EX AMOR(CHEIRO)
TTITLE16=TEM QUE SER DE CORAÇAO(ÉBANOOS)
TTITLE17=BRIGANDO COM A SAUDADE(CHAYMON)
EXTD=
EXTT0=
EXTT1=
EXTT2=
EXTT3=
EXTT4=
EXTT5=
EXTT6=
EXTT7=
EXTT8=
EXTT9=
EXTT10=
EXTT11=
EXTT12=
EXTT13=
EXTT14=
EXTT15=
EXTT16=
EXTT17=
PLAYORDER=
